<svg width="12" height="12" viewBox="0 0 12 12" fill="none" xmlns="http://www.w3.org/2000/svg">
<path fill-rule="evenodd" clip-rule="evenodd" d="M6 1.75C3.6565 1.75 1.75 3.6565 1.75 6C1.75 8.3435 3.6565 10.25 6 10.25C8.3435 10.25 10.25 8.3435 10.25 6C10.25 3.6565 8.3435 1.75 6 1.75ZM6 11C3.243 11 1 8.757 1 6C1 3.243 3.243 1 6 1C8.757 1 11 3.243 11 6C11 8.757 8.757 11 6 11Z" fill="#FF1818"/>
<path fill-rule="evenodd" clip-rule="evenodd" d="M5.99707 6.68649C5.79007 6.68649 5.62207 6.51849 5.62207 6.31149V4.10199C5.62207 3.89499 5.79007 3.72699 5.99707 3.72699C6.20407 3.72699 6.37207 3.89499 6.37207 4.10199V6.31149C6.37207 6.51849 6.20407 6.68649 5.99707 6.68649Z" fill="#FF1818"/>
<path fill-rule="evenodd" clip-rule="evenodd" d="M6.00201 8.39795C5.72551 8.39795 5.49951 8.17445 5.49951 7.89795C5.49951 7.62145 5.72101 7.39795 5.99701 7.39795H6.00201C6.27851 7.39795 6.50201 7.62145 6.50201 7.89795C6.50201 8.17445 6.27851 8.39795 6.00201 8.39795Z" fill="#FF1818"/>
</svg>
