<svg width="80" height="81" viewBox="0 0 80 81" fill="none" xmlns="http://www.w3.org/2000/svg">
<path d="M62.87 29.6708L41.2153 51.327L39.9997 52.5427L33.481 59.0599L25.7466 51.327L17.1294 42.7083L24.8638 34.9739L33.481 43.5927L39.9997 37.0739L55.1356 21.938L62.87 29.6708Z" fill="#22C55E"/>
<path d="M40 0.5C17.9094 0.5 0 18.4094 0 40.5C0 62.5906 17.9094 80.5 40 80.5C62.0906 80.5 80 62.5906 80 40.5C80 18.4094 62.0906 0.5 40 0.5ZM40 77.6984C19.4891 77.6984 2.80156 61.0109 2.80156 40.5C2.80156 19.9891 19.4891 3.30156 40 3.30156C60.5109 3.30156 77.1984 19.9891 77.1984 40.5C77.1984 61.0109 60.5109 77.6984 40 77.6984Z" fill="#22C55E"/>
</svg>
