<svg width="20" height="20" viewBox="0 0 20 20" fill="none" xmlns="http://www.w3.org/2000/svg">
<path fill-rule="evenodd" clip-rule="evenodd" d="M13.6757 2.30751L13.6766 2.93219C15.9721 3.1121 17.4885 4.67632 17.4909 7.07512L17.5 14.0966C17.5033 16.712 15.8602 18.3212 13.2265 18.3253L6.79324 18.3336C4.17599 18.337 2.51235 16.6895 2.50906 14.0666L2.50001 7.12759C2.49671 4.71297 3.95961 3.15292 6.25514 2.94219L6.25432 2.3175C6.2535 1.95102 6.52501 1.67532 6.88703 1.67532C7.24905 1.67449 7.52057 1.94935 7.52139 2.31584L7.52221 2.89888L12.4095 2.89221L12.4087 2.30917C12.4078 1.94269 12.6794 1.66783 13.0414 1.66699C13.3952 1.66616 13.6749 1.94102 13.6757 2.30751ZM3.76816 7.38486L16.2249 7.3682V7.07668C16.1896 5.28591 15.2911 4.34638 13.6785 4.20645L13.6793 4.8478C13.6793 5.20595 13.4004 5.48998 13.0466 5.48998C12.6845 5.49081 12.4122 5.20762 12.4122 4.84946L12.4114 4.1748L7.52412 4.18147L7.52494 4.85529C7.52494 5.21428 7.25425 5.49747 6.89223 5.49747C6.53021 5.49831 6.25787 5.21595 6.25787 4.85696L6.25704 4.21562C4.65264 4.37637 3.76486 5.31923 3.76733 7.12582L3.76816 7.38486ZM12.7004 11.1708V11.18C12.7087 11.5631 13.0213 11.8538 13.4006 11.8455C13.7709 11.8363 14.0662 11.519 14.058 11.1359C14.0407 10.7694 13.7437 10.4704 13.3743 10.4712C12.9958 10.4795 12.6996 10.7877 12.7004 11.1708ZM13.3803 14.9104C13.0018 14.9021 12.6965 14.5864 12.6957 14.2033C12.6875 13.8202 12.9911 13.5028 13.3696 13.4937H13.3778C13.7645 13.4937 14.078 13.8093 14.078 14.2008C14.0788 14.5923 13.7661 14.9096 13.3803 14.9104ZM9.31054 11.1841C9.327 11.5672 9.64047 11.8662 10.0189 11.8496C10.3892 11.8321 10.6846 11.5156 10.6681 11.1324C10.6591 10.7576 10.3546 10.4661 9.98439 10.4669C9.60592 10.4836 9.30972 10.8009 9.31054 11.1841ZM10.0226 14.8726C9.64413 14.8893 9.33148 14.5903 9.3142 14.2071C9.3142 13.824 9.60958 13.5075 9.98805 13.49C10.3583 13.4892 10.6636 13.7807 10.6718 14.1547C10.6891 14.5386 10.3929 14.8551 10.0226 14.8726ZM5.92065 11.2134C5.9371 11.5965 6.25058 11.8963 6.62906 11.8789C6.99931 11.8622 7.29468 11.5449 7.2774 11.1617C7.26917 10.7869 6.96475 10.4954 6.59368 10.4962C6.2152 10.5129 5.91983 10.8302 5.92065 11.2134ZM6.63247 14.8769C6.254 14.8944 5.94135 14.5945 5.92407 14.2114C5.92324 13.8283 6.21944 13.5109 6.59792 13.4943C6.96817 13.4934 7.27342 13.785 7.28164 14.1598C7.29892 14.5429 7.00355 14.8602 6.63247 14.8769Z" fill="#141414"/>
</svg>
