<svg width="16" height="16" viewBox="0 0 16 16" fill="none" xmlns="http://www.w3.org/2000/svg">
<path d="M2.16667 7.16667L3.41667 3.41667H12.5833L13.8333 7.16667M12.5833 11.3333C12.2518 11.3333 11.9339 11.2016 11.6995 10.9672C11.465 10.7328 11.3333 10.4149 11.3333 10.0833C11.3333 9.75181 11.465 9.43387 11.6995 9.19945C11.9339 8.96503 12.2518 8.83333 12.5833 8.83333C12.9149 8.83333 13.2328 8.96503 13.4672 9.19945C13.7016 9.43387 13.8333 9.75181 13.8333 10.0833C13.8333 10.4149 13.7016 10.7328 13.4672 10.9672C13.2328 11.2016 12.9149 11.3333 12.5833 11.3333ZM3.41667 11.3333C3.08515 11.3333 2.7672 11.2016 2.53278 10.9672C2.29836 10.7328 2.16667 10.4149 2.16667 10.0833C2.16667 9.75181 2.29836 9.43387 2.53278 9.19945C2.7672 8.96503 3.08515 8.83333 3.41667 8.83333C3.74819 8.83333 4.06613 8.96503 4.30055 9.19945C4.53497 9.43387 4.66667 9.75181 4.66667 10.0833C4.66667 10.4149 4.53497 10.7328 4.30055 10.9672C4.06613 11.2016 3.74819 11.3333 3.41667 11.3333ZM13.7667 3C13.6 2.51667 13.1333 2.16667 12.5833 2.16667H10.5V0.5H5.5V2.16667H3.41667C2.86667 2.16667 2.4 2.51667 2.23333 3L0.5 8V14.6667C0.5 14.8877 0.587797 15.0996 0.744078 15.2559C0.900358 15.4122 1.11232 15.5 1.33333 15.5H2.16667C2.38768 15.5 2.59964 15.4122 2.75592 15.2559C2.9122 15.0996 3 14.8877 3 14.6667V13.8333H13V14.6667C13 14.8877 13.0878 15.0996 13.2441 15.2559C13.4004 15.4122 13.6123 15.5 13.8333 15.5H14.6667C14.8877 15.5 15.0996 15.4122 15.2559 15.2559C15.4122 15.0996 15.5 14.8877 15.5 14.6667V8L13.7667 3Z" fill="#141414"/>
</svg>
