<svg width="25" height="24" viewBox="0 0 25 24" fill="none" xmlns="http://www.w3.org/2000/svg">
<path fill-rule="evenodd" clip-rule="evenodd" d="M7 3.5C4.25 3.5 4.25 3.708 4.25 6.25V6.275C4.25 7.382 4.25 8.182 4.521 8.52C4.786 8.848 5.573 9 7 9C8.427 9 9.214 8.847 9.479 8.519C9.75 8.182 9.75 7.382 9.75 6.274C9.75 3.708 9.75 3.5 7 3.5ZM7 10.5C5.314 10.5 4.049 10.323 3.354 9.46C2.75 8.711 2.75 7.689 2.75 6.275L3.5 6.25H2.75C2.75 3.38 2.931 2 7 2C11.069 2 11.25 3.38 11.25 6.25C11.25 7.688 11.25 8.711 10.646 9.46C9.951 10.323 8.686 10.5 7 10.5Z" fill="#636366"/>
<path fill-rule="evenodd" clip-rule="evenodd" d="M18 3.5C15.25 3.5 15.25 3.708 15.25 6.25V6.275C15.25 7.382 15.25 8.182 15.521 8.52C15.786 8.848 16.573 9 18 9C19.427 9 20.214 8.847 20.479 8.519C20.75 8.182 20.75 7.382 20.75 6.274C20.75 3.708 20.75 3.5 18 3.5ZM18 10.5C16.314 10.5 15.049 10.323 14.354 9.46C13.75 8.711 13.75 7.689 13.75 6.275L14.5 6.25H13.75C13.75 3.38 13.931 2 18 2C22.069 2 22.25 3.38 22.25 6.25C22.25 7.688 22.25 8.711 21.646 9.46C20.951 10.323 19.686 10.5 18 10.5Z" fill="#636366"/>
<path fill-rule="evenodd" clip-rule="evenodd" d="M7 14.5C4.25 14.5 4.25 14.708 4.25 17.25V17.275C4.25 18.382 4.25 19.182 4.521 19.52C4.786 19.848 5.573 20 7 20C8.427 20 9.214 19.847 9.479 19.519C9.75 19.182 9.75 18.382 9.75 17.274C9.75 14.708 9.75 14.5 7 14.5ZM7 21.5C5.314 21.5 4.049 21.323 3.354 20.46C2.75 19.711 2.75 18.689 2.75 17.275L3.5 17.25H2.75C2.75 14.38 2.931 13 7 13C11.069 13 11.25 14.38 11.25 17.25C11.25 18.688 11.25 19.711 10.646 20.46C9.951 21.323 8.686 21.5 7 21.5Z" fill="#636366"/>
<path fill-rule="evenodd" clip-rule="evenodd" d="M18 14.5C15.25 14.5 15.25 14.708 15.25 17.25V17.275C15.25 18.382 15.25 19.182 15.521 19.52C15.786 19.848 16.573 20 18 20C19.427 20 20.214 19.847 20.479 19.519C20.75 19.182 20.75 18.382 20.75 17.274C20.75 14.708 20.75 14.5 18 14.5ZM18 21.5C16.314 21.5 15.049 21.323 14.354 20.46C13.75 19.711 13.75 18.689 13.75 17.275L14.5 17.25H13.75C13.75 14.38 13.931 13 18 13C22.069 13 22.25 14.38 22.25 17.25C22.25 18.688 22.25 19.711 21.646 20.46C20.951 21.323 19.686 21.5 18 21.5Z" fill="#636366"/>
</svg>
