<svg width="20" height="20" viewBox="0 0 20 20" fill="none" xmlns="http://www.w3.org/2000/svg">
<path d="M13.5417 3.86584C14.6101 4.48269 15.4988 5.36788 16.1199 6.43376C16.7411 7.49964 17.073 8.70926 17.083 9.94287C17.093 11.1765 16.7806 12.3913 16.1768 13.4671C15.5729 14.5429 14.6986 15.4423 13.6404 16.0763C12.5821 16.7103 11.3766 17.057 10.1432 17.082C8.90983 17.1069 7.6913 16.8093 6.60826 16.2186C5.52523 15.6279 4.61524 14.7646 3.96839 13.7142C3.32153 12.6637 2.96025 11.4625 2.92029 10.2295L2.91675 10L2.92029 9.7705C2.95996 8.54721 3.31593 7.35506 3.95349 6.31029C4.59106 5.26552 5.48846 4.40378 6.55821 3.80909C7.62796 3.21439 8.83356 2.90704 10.0575 2.91698C11.2814 2.92693 12.4818 3.25384 13.5417 3.86584ZM10.0001 5.75C9.82658 5.75003 9.65913 5.81372 9.52948 5.92901C9.39983 6.0443 9.317 6.20316 9.2967 6.37546L9.29175 6.45834V10L9.29812 10.0928C9.31427 10.2157 9.36239 10.3322 9.43766 10.4307L9.49929 10.5015L11.6243 12.6265L11.6909 12.6846C11.8151 12.781 11.9679 12.8333 12.1251 12.8333C12.2823 12.8333 12.4351 12.781 12.5593 12.6846L12.6259 12.6258L12.6847 12.5592C12.781 12.435 12.8334 12.2822 12.8334 12.125C12.8334 11.9678 12.781 11.815 12.6847 11.6908L12.6259 11.6242L10.7084 9.70605V6.45834L10.7035 6.37546C10.6832 6.20316 10.6003 6.0443 10.4707 5.92901C10.341 5.81372 10.1736 5.75003 10.0001 5.75Z" fill="#141414"/>
</svg>
