<svg width="20" height="20" viewBox="0 0 20 20" fill="none" xmlns="http://www.w3.org/2000/svg">
<path fill-rule="evenodd" clip-rule="evenodd" d="M1.6665 10.0001C1.6665 5.40008 5.3915 1.66675 9.99984 1.66675C14.5998 1.66675 18.3332 5.40008 18.3332 10.0001C18.3332 14.6084 14.5998 18.3334 9.99984 18.3334C5.3915 18.3334 1.6665 14.6084 1.6665 10.0001ZM11.8581 11.5252L13.2081 7.25857C13.2998 6.9669 13.0331 6.6919 12.7415 6.78357L8.4748 8.1169C8.2998 8.17523 8.15813 8.30857 8.10813 8.48357L6.7748 12.7586C6.68313 13.0419 6.95813 13.3169 7.24146 13.2252L11.4915 11.8919C11.6665 11.8419 11.8081 11.7002 11.8581 11.5252Z" fill="#141414"/>
</svg>
