<svg width="81" height="80" viewBox="0 0 81 80" fill="none" xmlns="http://www.w3.org/2000/svg">
<g clip-path="url(#clip0_536_12191)">
<path d="M73.3224 80L70.9109 65.3944C70.245 61.3615 67.5621 57.9497 63.8001 56.3515L54.1962 52.2717H40.2571H40.2089H26.2698L16.6659 56.3515C12.9039 57.9497 10.221 61.3615 9.55514 65.3944L7.14355 80H73.3224Z" fill="#D6F3FF"/>
<path d="M64.9643 80L62.3574 74.3046L68.2552 70.6846L73.2947 80H64.9643Z" fill="#9EE3FF"/>
<path d="M57.2785 15.6128L59.0595 11.6019C60.4106 8.55884 58.7789 5.01713 55.5956 4.08369L43.0746 0.411592C41.2031 -0.137299 39.2145 -0.137299 37.343 0.411592L24.8218 4.08369C21.6386 5.01729 20.0069 8.55884 21.358 11.6019L23.139 15.6128L40.7989 18.0012L57.2785 15.6128Z" fill="#344DB3"/>
<path d="M30.2777 46.7232L26.2695 52.2717L36.6198 58.4717L40.2088 49.7592L30.2777 46.7232Z" fill="#9EE3FF"/>
<path d="M50.1399 46.7232L54.1481 52.2717L43.798 58.4717L40.209 49.7592L50.1399 46.7232Z" fill="#9EE3FF"/>
<path d="M50.7917 46.4801L43.6662 49.1356C41.4353 49.967 38.9815 49.967 36.7505 49.1356L29.6251 46.4801C25.7262 45.0271 23.1387 41.2897 23.1387 37.111V20.3896H57.2781V37.111C57.2781 41.2897 54.6906 45.0271 50.7917 46.4801Z" fill="#FDCFA4"/>
<path d="M50.8397 20.3896V37.111C50.8397 41.2897 48.2522 45.0271 44.3533 46.4801L37.2278 49.1356C37.1488 49.165 37.0689 49.1911 36.9893 49.2185C39.1558 49.9636 41.5145 49.9377 43.6664 49.1356L50.7919 46.4801C54.6908 45.0271 57.2783 41.2897 57.2783 37.111V20.3896H50.8397Z" fill="#FDC590"/>
<path d="M23.1387 20.3896C23.1387 23.8475 25.9282 26.6505 29.3693 26.6505H51.0475C54.4886 26.6505 57.2781 23.8473 57.2781 20.3896L40.2084 18.0012L23.1387 20.3896Z" fill="#344DB3"/>
<path d="M40.2086 18.0012L36.9893 18.4516L50.8397 20.3895C50.8397 23.8473 48.0501 26.6504 44.609 26.6504H51.0476C54.4887 26.6504 57.2783 23.8473 57.2783 20.3895L40.2086 18.0012Z" fill="#1C37A6"/>
<path d="M23.1387 15.6128H57.2781V20.3896H23.1387V15.6128Z" fill="#FFBE00"/>
<path d="M55.5954 4.08369L43.0744 0.411592C41.2028 -0.137299 39.2143 -0.137299 37.3427 0.411592L36.9893 0.515254L49.1569 4.08353C52.3402 5.01713 53.9719 8.55868 52.6207 11.6017L50.8398 15.6127H57.2784L59.0594 11.6017C60.4105 8.55884 58.7788 5.01713 55.5954 4.08369Z" fill="#1C37A6"/>
<path d="M50.8398 15.6128H57.2785V20.3896H50.8398V15.6128Z" fill="#F0B300"/>
<path d="M36.6201 58.4717L40.2092 49.7592L43.7982 58.4717L42.4623 62.1694H38.2377L36.6201 58.4717Z" fill="#FFBE00"/>
<path d="M15.474 80L18.081 74.3046L12.1832 70.6846L7.14355 80H15.474Z" fill="#9EE3FF"/>
<path d="M13.2296 68.3091L11.8776 71.0745C11.3305 72.1935 11.4298 73.5207 12.1371 74.5459L12.2018 74.6397C12.8453 75.5723 13.9061 76.1293 15.0391 76.1293C16.3122 76.1293 17.4815 75.4276 18.0806 74.3044L21.4486 67.9897" fill="#FDCFA4"/>
<path d="M67.2093 68.3091L68.5612 71.0745C69.1083 72.1935 69.009 73.5207 68.3017 74.5459L68.237 74.6397C67.5935 75.5723 66.5327 76.1293 65.3997 76.1293C64.1266 76.1293 62.9574 75.4276 62.3583 74.3044L58.9902 67.9897" fill="#FDCFA4"/>
<path d="M65.4927 79.8295C62.7843 68.3741 52.4922 59.8494 40.2092 59.8494C27.9263 59.8494 17.6342 68.3741 14.9258 79.8295M20.0348 79.8295C22.3973 71.901 29.3174 65.9168 37.7424 64.9287V77.1698C37.7424 78.0745 37.6449 78.9653 37.4572 79.8295M42.9614 79.8295C42.7737 78.9655 42.6762 78.0745 42.6762 77.1698V64.9287C51.1012 65.9168 58.0213 71.901 60.3838 79.8295" fill="#8986A6"/>
<path d="M13.2295 68.3091C13.2295 68.3091 17.2863 72.7867 20.8063 70.9317C24.3263 69.0766 24.1066 63.0668 22.6651 62.4221C20.6484 61.5201 15.2032 64.4006 13.2295 68.3091Z" fill="#FDCFA4"/>
<path d="M67.209 68.3091C67.209 68.3091 63.1522 72.7867 59.6322 70.9317C56.1124 69.0766 56.332 63.0668 57.7734 62.4221C59.7901 61.5201 65.2353 64.4006 67.209 68.3091Z" fill="#FDCFA4"/>
<path d="M40.2092 42.6102C38.2504 42.6102 36.4136 41.7856 35.0372 40.2883C34.0146 39.1764 35.7462 37.4914 36.8147 38.6545C37.7285 39.6485 38.934 40.1957 40.2092 40.1957C41.4843 40.1957 42.6898 39.6485 43.6036 38.6545C44.6257 37.5419 46.4503 39.1258 45.3811 40.2883C44.0047 41.7856 42.1679 42.6102 40.2092 42.6102Z" fill="#DD9962"/>
</g>
<defs>
<clipPath id="clip0_536_12191">
<rect width="80" height="80" fill="white" transform="translate(0.233398)"/>
</clipPath>
</defs>
</svg>
