<svg width="88" height="88" viewBox="0 0 88 88" fill="none" xmlns="http://www.w3.org/2000/svg">
<g filter="url(#filter0_d_523_3079)">
<rect x="16" y="16" width="56" height="56" rx="28" fill="#2BC1BB" shape-rendering="crispEdges"/>
<path d="M39 38C37.7864 39.0248 36.917 40.3977 36.5094 41.9329C36.1019 43.4682 36.1759 45.0915 36.7215 46.5833C37.2671 48.0751 38.2579 49.3632 39.5597 50.2732C40.8616 51.1833 42.4116 51.6714 44 51.6714C45.5884 51.6714 47.1384 51.1833 48.4403 50.2732C49.7421 49.3632 50.7329 48.0751 51.2785 46.5833C51.8241 45.0915 51.8981 43.4682 51.4906 41.9329C51.083 40.3977 50.2136 39.0248 49 38M44 36V44" stroke="white" stroke-width="2" stroke-linecap="round" stroke-linejoin="round"/>
</g>
<defs>
<filter id="filter0_d_523_3079" x="0" y="0" width="88" height="88" filterUnits="userSpaceOnUse" color-interpolation-filters="sRGB">
<feFlood flood-opacity="0" result="BackgroundImageFix"/>
<feColorMatrix in="SourceAlpha" type="matrix" values="0 0 0 0 0 0 0 0 0 0 0 0 0 0 0 0 0 0 127 0" result="hardAlpha"/>
<feOffset/>
<feGaussianBlur stdDeviation="8"/>
<feComposite in2="hardAlpha" operator="out"/>
<feColorMatrix type="matrix" values="0 0 0 0 0 0 0 0 0 0 0 0 0 0 0 0 0 0 0.1 0"/>
<feBlend mode="normal" in2="BackgroundImageFix" result="effect1_dropShadow_523_3079"/>
<feBlend mode="normal" in="SourceGraphic" in2="effect1_dropShadow_523_3079" result="shape"/>
</filter>
</defs>
</svg>
