<svg width="16" height="18" viewBox="0 0 16 18" fill="none" xmlns="http://www.w3.org/2000/svg">
<path fill-rule="evenodd" clip-rule="evenodd" d="M0.916687 7.59797C0.916687 3.76475 4.11992 0.666504 7.99456 0.666504C11.8801 0.666504 15.0834 3.76475 15.0834 7.59797C15.0834 9.52958 14.3809 11.3229 13.2246 12.8428C11.949 14.5194 10.3768 15.9802 8.60714 17.1269C8.20211 17.3919 7.83658 17.4119 7.39206 17.1269C5.6123 15.9802 4.04009 14.5194 2.77544 12.8428C1.61834 11.3229 0.916687 9.52958 0.916687 7.59797ZM5.6619 7.81398C5.6619 9.09811 6.70975 10.1081 7.99458 10.1081C9.28024 10.1081 10.3382 9.09811 10.3382 7.81398C10.3382 6.53985 9.28024 5.48071 7.99458 5.48071C6.70975 5.48071 5.6619 6.53985 5.6619 7.81398Z" fill="#FF1818"/>
</svg>
