<svg width="16" height="18" viewBox="0 0 16 18" fill="none" xmlns="http://www.w3.org/2000/svg">
<path fill-rule="evenodd" clip-rule="evenodd" d="M0.916504 7.59809C0.916504 3.76487 4.11974 0.666626 7.99438 0.666626C11.8799 0.666626 15.0832 3.76487 15.0832 7.59809C15.0832 9.5297 14.3807 11.323 13.2244 12.8429C11.9488 14.5196 10.3766 15.9803 8.60696 17.127C8.20193 17.392 7.8364 17.412 7.39188 17.127C5.61212 15.9803 4.03991 14.5196 2.77525 12.8429C1.61816 11.323 0.916504 9.5297 0.916504 7.59809ZM5.66174 7.8139C5.66174 9.09803 6.7096 10.108 7.99442 10.108C9.28009 10.108 10.338 9.09803 10.338 7.8139C10.338 6.53977 9.28009 5.48064 7.99442 5.48064C6.7096 5.48064 5.66174 6.53977 5.66174 7.8139Z" fill="#FF1818"/>
</svg>
