<svg width="20" height="108" viewBox="0 0 20 108" fill="none" xmlns="http://www.w3.org/2000/svg">
<circle cx="10" cy="22" r="6" fill="#141414"/>
<rect x="8.5" y="32" width="3" height="3" rx="1.5" fill="#DDDDE5"/>
<rect x="8.5" y="39" width="3" height="29" rx="1.5" fill="#DDDDE5"/>
<path fill-rule="evenodd" clip-rule="evenodd" d="M2.9165 80.5982C2.9165 76.765 6.11974 73.6667 9.99438 73.6667C13.8799 73.6667 17.0832 76.765 17.0832 80.5982C17.0832 82.5298 16.3807 84.3231 15.2244 85.8431C13.9488 87.5197 12.3766 88.9805 10.607 90.1271C10.2019 90.3921 9.8364 90.4121 9.39188 90.1271C7.61212 88.9805 6.03991 87.5197 4.77525 85.8431C3.61816 84.3231 2.9165 82.5298 2.9165 80.5982ZM7.66138 80.8139C7.66138 82.098 8.70923 83.108 9.99406 83.108C11.2797 83.108 12.3377 82.098 12.3377 80.8139C12.3377 79.5397 11.2797 78.4806 9.99406 78.4806C8.70923 78.4806 7.66138 79.5397 7.66138 80.8139Z" fill="#FF1818"/>
</svg>
