<svg width="20" height="20" viewBox="0 0 20 20" fill="none" xmlns="http://www.w3.org/2000/svg">
<path fill-rule="evenodd" clip-rule="evenodd" d="M2.91699 8.59815C2.91699 4.76493 6.12023 1.66669 9.99486 1.66669C13.8804 1.66669 17.0837 4.76493 17.0837 8.59815C17.0837 10.5298 16.3812 12.323 15.2249 13.843C13.9493 15.5196 12.3771 16.9804 10.6074 18.127C10.2024 18.392 9.83689 18.412 9.39237 18.127C7.61261 16.9804 6.0404 15.5196 4.77574 13.843C3.61865 12.323 2.91699 10.5298 2.91699 8.59815ZM7.66235 8.81398C7.66235 10.0981 8.71021 11.1081 9.99503 11.1081C11.2807 11.1081 12.3386 10.0981 12.3386 8.81398C12.3386 7.53985 11.2807 6.48071 9.99503 6.48071C8.71021 6.48071 7.66235 7.53985 7.66235 8.81398Z" fill="#141414"/>
</svg>
