<svg width="25" height="24" viewBox="0 0 25 24" fill="none" xmlns="http://www.w3.org/2000/svg">
<path d="M18.25 15C19.0457 15 19.8087 15.3161 20.3713 15.8787C20.9339 16.4413 21.25 17.2044 21.25 18C21.25 18.7957 20.9339 19.5587 20.3713 20.1213C19.8087 20.6839 19.0457 21 18.25 21C17.629 21.0018 17.0229 20.8102 16.5157 20.4518C16.0086 20.0934 15.6256 19.586 15.42 19H14.25V17H15.42C15.83 15.83 16.94 15 18.25 15ZM18.25 17C17.9848 17 17.7304 17.1054 17.5429 17.2929C17.3554 17.4804 17.25 17.7348 17.25 18C17.25 18.2652 17.3554 18.5196 17.5429 18.7071C17.7304 18.8947 17.9848 19 18.25 19C18.5152 19 18.7696 18.8947 18.9571 18.7071C19.1447 18.5196 19.25 18.2652 19.25 18C19.25 17.7348 19.1447 17.4804 18.9571 17.2929C18.7696 17.1054 18.5152 17 18.25 17ZM18.25 8.00001C18.6293 8.00001 18.993 7.84935 19.2612 7.58117C19.5294 7.31299 19.68 6.94927 19.68 6.57001C19.68 6.19075 19.5294 5.82702 19.2612 5.55884C18.993 5.29067 18.6293 5.14001 18.25 5.14001C17.8708 5.14001 17.507 5.29067 17.2389 5.55884C16.9707 5.82702 16.82 6.19075 16.82 6.57001C16.82 6.94927 16.9707 7.31299 17.2389 7.58117C17.507 7.84935 17.8708 8.00001 18.25 8.00001ZM18.25 2.57001C19.3109 2.57001 20.3283 2.99143 21.0784 3.74158C21.8286 4.49173 22.25 5.50914 22.25 6.57001C22.25 9.56001 18.25 14 18.25 14C18.25 14 14.25 9.56001 14.25 6.57001C14.25 5.50914 14.6714 4.49173 15.4216 3.74158C16.1717 2.99143 17.1891 2.57001 18.25 2.57001ZM9.08001 17H10.25V19H9.08001C8.8744 19.586 8.49144 20.0934 7.9843 20.4518C7.47716 20.8102 6.87101 21.0018 6.25001 21C5.45436 21 4.6913 20.6839 4.12869 20.1213C3.56608 19.5587 3.25001 18.7957 3.25001 18C3.25001 16.69 4.08001 15.58 5.25001 15.17V14H7.25001V15.17C8.10001 15.47 8.78001 16.15 9.08001 17ZM6.25001 17C5.9848 17 5.73044 17.1054 5.54291 17.2929C5.35537 17.4804 5.25001 17.7348 5.25001 18C5.25001 18.2652 5.35537 18.5196 5.54291 18.7071C5.73044 18.8947 5.9848 19 6.25001 19C6.51523 19 6.76958 18.8947 6.95712 18.7071C7.14466 18.5196 7.25001 18.2652 7.25001 18C7.25001 17.7348 7.14466 17.4804 6.95712 17.2929C6.76958 17.1054 6.51523 17 6.25001 17ZM6.25001 3.00001C7.04566 3.00001 7.80872 3.31608 8.37133 3.87869C8.93394 4.4413 9.25001 5.20436 9.25001 6.00001C9.25001 7.31001 8.42001 8.42001 7.25001 8.83001V10H5.25001V8.83001C4.66404 8.62439 4.15662 8.24143 3.79822 7.73429C3.43982 7.22715 3.24822 6.62101 3.25001 6.00001C3.25001 5.20436 3.56608 4.4413 4.12869 3.87869C4.6913 3.31608 5.45436 3.00001 6.25001 3.00001ZM6.25001 5.00001C5.9848 5.00001 5.73044 5.10536 5.54291 5.2929C5.35537 5.48044 5.25001 5.73479 5.25001 6.00001C5.25001 6.26522 5.35537 6.51958 5.54291 6.70711C5.73044 6.89465 5.9848 7.00001 6.25001 7.00001C6.51523 7.00001 6.76958 6.89465 6.95712 6.70711C7.14466 6.51958 7.25001 6.26522 7.25001 6.00001C7.25001 5.73479 7.14466 5.48044 6.95712 5.2929C6.76958 5.10536 6.51523 5.00001 6.25001 5.00001ZM11.25 19V17H13.25V19H11.25ZM7.25001 13H5.25001V11H7.25001V13Z" fill="#636366"/>
</svg>
