<svg width="25" height="24" viewBox="0 0 25 24" fill="none" xmlns="http://www.w3.org/2000/svg">
<g clip-path="url(#clip0_2018_211)">
<path d="M5.75 14H19.75L18.25 9.5H7.25L5.75 14ZM18.25 19C18.6478 19 19.0294 18.842 19.3107 18.5607C19.592 18.2794 19.75 17.8978 19.75 17.5C19.75 17.1022 19.592 16.7206 19.3107 16.4393C19.0294 16.158 18.6478 16 18.25 16C17.8522 16 17.4706 16.158 17.1893 16.4393C16.908 16.7206 16.75 17.1022 16.75 17.5C16.75 17.8978 16.908 18.2794 17.1893 18.5607C17.4706 18.842 17.8522 19 18.25 19ZM7.25 19C7.64782 19 8.02936 18.842 8.31066 18.5607C8.59196 18.2794 8.75 17.8978 8.75 17.5C8.75 17.1022 8.59196 16.7206 8.31066 16.4393C8.02936 16.158 7.64782 16 7.25 16C6.85218 16 6.47064 16.158 6.18934 16.4393C5.90804 16.7206 5.75 17.1022 5.75 17.5C5.75 17.8978 5.90804 18.2794 6.18934 18.5607C6.47064 18.842 6.85218 19 7.25 19ZM19.67 9L21.75 15V23C21.75 23.2652 21.6446 23.5196 21.4571 23.7071C21.2696 23.8946 21.0152 24 20.75 24H19.75C19.4848 24 19.2304 23.8946 19.0429 23.7071C18.8554 23.5196 18.75 23.2652 18.75 23V22H6.75V23C6.75 23.2652 6.64464 23.5196 6.45711 23.7071C6.26957 23.8946 6.01522 24 5.75 24H4.75C4.48478 24 4.23043 23.8946 4.04289 23.7071C3.85536 23.5196 3.75 23.2652 3.75 23V15L5.83 9C6.03 8.42 6.6 8 7.25 8H18.25C18.9 8 19.47 8.42 19.67 9ZM12.75 0C14.87 0 16.9 0.86 18.4 2.35L16.98 3.77C15.8587 2.64508 14.3383 2.00888 12.75 2C11.17 2 9.64 2.65 8.52 3.77L7.11 2.35C8.60504 0.851318 10.6331 0.00628061 12.75 0ZM12.75 4C13.81 4 14.82 4.44 15.57 5.18L14.15 6.6C13.78 6.23 13.28 6 12.75 6C12.25 6 11.72 6.23 11.35 6.6L9.93 5.18C10.68 4.44 11.69 4 12.75 4Z" fill="#636366"/>
</g>
<defs>
<clipPath id="clip0_2018_211">
<rect width="24" height="24" fill="white" transform="translate(0.75)"/>
</clipPath>
</defs>
</svg>
