<svg width="25" height="24" viewBox="0 0 25 24" fill="none" xmlns="http://www.w3.org/2000/svg">
<path fill-rule="evenodd" clip-rule="evenodd" d="M22.1387 15.8957H18.0907C16.1937 15.8957 14.6497 14.3527 14.6487 12.4567C14.6487 10.5587 16.1927 9.01467 18.0907 9.01367H22.1387C22.5527 9.01367 22.8887 9.34967 22.8887 9.76367C22.8887 10.1777 22.5527 10.5137 22.1387 10.5137H18.0907C17.0197 10.5147 16.1487 11.3857 16.1487 12.4557C16.1487 13.5247 17.0207 14.3957 18.0907 14.3957H22.1387C22.5527 14.3957 22.8887 14.7317 22.8887 15.1457C22.8887 15.5597 22.5527 15.8957 22.1387 15.8957Z" fill="#636366"/>
<path fill-rule="evenodd" clip-rule="evenodd" d="M18.5483 13.1436H18.2363C17.8223 13.1436 17.4863 12.8076 17.4863 12.3936C17.4863 11.9796 17.8223 11.6436 18.2363 11.6436H18.5483C18.9623 11.6436 19.2983 11.9796 19.2983 12.3936C19.2983 12.8076 18.9623 13.1436 18.5483 13.1436Z" fill="#636366"/>
<mask id="mask0_890_10854" style="mask-type:luminance" maskUnits="userSpaceOnUse" x="2" y="3" width="21" height="20">
<path fill-rule="evenodd" clip-rule="evenodd" d="M2.25 3H22.8886V22.1729H2.25V3Z" fill="white"/>
</mask>
<g mask="url(#mask0_890_10854)">
<path fill-rule="evenodd" clip-rule="evenodd" d="M8.24757 4.5C5.76757 4.5 3.74957 6.518 3.74957 8.998V16.175C3.74957 18.655 5.76757 20.673 8.24757 20.673H16.8916C19.3716 20.673 21.3886 18.655 21.3886 16.175V8.998C21.3886 6.518 19.3716 4.5 16.8916 4.5H8.24757ZM16.8916 22.173H8.24757C4.94057 22.173 2.24957 19.482 2.24957 16.175V8.998C2.24957 5.69 4.94057 3 8.24757 3H16.8916C20.1986 3 22.8886 5.69 22.8886 8.998V16.175C22.8886 19.482 20.1986 22.173 16.8916 22.173Z" fill="#636366"/>
</g>
<path fill-rule="evenodd" clip-rule="evenodd" d="M12.9346 9.03809H7.53558C7.12158 9.03809 6.78558 8.70209 6.78558 8.28809C6.78558 7.87409 7.12158 7.53809 7.53558 7.53809H12.9346C13.3486 7.53809 13.6846 7.87409 13.6846 8.28809C13.6846 8.70209 13.3486 9.03809 12.9346 9.03809Z" fill="#636366"/>
</svg>
