<svg width="25" height="24" viewBox="0 0 25 24" fill="none" xmlns="http://www.w3.org/2000/svg">
<path d="M18.75 15.0001C19.5457 15.0001 20.3087 15.3161 20.8713 15.8787C21.4339 16.4414 21.75 17.2044 21.75 18.0001C21.75 18.7957 21.4339 19.5588 20.8713 20.1214C20.3087 20.684 19.5457 21.0001 18.75 21.0001C18.129 21.0019 17.5229 20.8103 17.0157 20.4519C16.5086 20.0935 16.1256 19.586 15.92 19.0001H14.75V17.0001H15.92C16.33 15.8301 17.44 15.0001 18.75 15.0001ZM18.75 17.0001C18.4848 17.0001 18.2304 17.1054 18.0429 17.293C17.8554 17.4805 17.75 17.7349 17.75 18.0001C17.75 18.2653 17.8554 18.5196 18.0429 18.7072C18.2304 18.8947 18.4848 19.0001 18.75 19.0001C19.0152 19.0001 19.2696 18.8947 19.4571 18.7072C19.6447 18.5196 19.75 18.2653 19.75 18.0001C19.75 17.7349 19.6447 17.4805 19.4571 17.293C19.2696 17.1054 19.0152 17.0001 18.75 17.0001ZM18.75 8.00007C19.1293 8.00007 19.493 7.84941 19.7612 7.58123C20.0294 7.31305 20.18 6.94933 20.18 6.57007C20.18 6.19081 20.0294 5.82708 19.7612 5.55891C19.493 5.29073 19.1293 5.14007 18.75 5.14007C18.3708 5.14007 18.007 5.29073 17.7389 5.55891C17.4707 5.82708 17.32 6.19081 17.32 6.57007C17.32 6.94933 17.4707 7.31305 17.7389 7.58123C18.007 7.84941 18.3708 8.00007 18.75 8.00007ZM18.75 2.57007C19.8109 2.57007 20.8283 2.9915 21.5784 3.74164C22.3286 4.49179 22.75 5.5092 22.75 6.57007C22.75 9.56007 18.75 14.0001 18.75 14.0001C18.75 14.0001 14.75 9.56007 14.75 6.57007C14.75 5.5092 15.1714 4.49179 15.9216 3.74164C16.6717 2.9915 17.6891 2.57007 18.75 2.57007ZM9.58001 17.0001H10.75V19.0001H9.58001C9.3744 19.586 8.99144 20.0935 8.4843 20.4519C7.97716 20.8103 7.37101 21.0019 6.75001 21.0001C5.95436 21.0001 5.1913 20.684 4.62869 20.1214C4.06608 19.5588 3.75001 18.7957 3.75001 18.0001C3.75001 16.6901 4.58001 15.5801 5.75001 15.1701V14.0001H7.75001V15.1701C8.60001 15.4701 9.28001 16.1501 9.58001 17.0001ZM6.75001 17.0001C6.4848 17.0001 6.23044 17.1054 6.04291 17.293C5.85537 17.4805 5.75001 17.7349 5.75001 18.0001C5.75001 18.2653 5.85537 18.5196 6.04291 18.7072C6.23044 18.8947 6.4848 19.0001 6.75001 19.0001C7.01523 19.0001 7.26958 18.8947 7.45712 18.7072C7.64466 18.5196 7.75001 18.2653 7.75001 18.0001C7.75001 17.7349 7.64466 17.4805 7.45712 17.293C7.26958 17.1054 7.01523 17.0001 6.75001 17.0001ZM6.75001 3.00007C7.54566 3.00007 8.30872 3.31614 8.87133 3.87875C9.43394 4.44136 9.75001 5.20442 9.75001 6.00007C9.75001 7.31007 8.92001 8.42007 7.75001 8.83007V10.0001H5.75001V8.83007C5.16404 8.62446 4.65662 8.24149 4.29822 7.73435C3.93982 7.22722 3.74822 6.62107 3.75001 6.00007C3.75001 5.20442 4.06608 4.44136 4.62869 3.87875C5.1913 3.31614 5.95436 3.00007 6.75001 3.00007ZM6.75001 5.00007C6.4848 5.00007 6.23044 5.10543 6.04291 5.29296C5.85537 5.4805 5.75001 5.73485 5.75001 6.00007C5.75001 6.26529 5.85537 6.51964 6.04291 6.70718C6.23044 6.89471 6.4848 7.00007 6.75001 7.00007C7.01523 7.00007 7.26958 6.89471 7.45712 6.70718C7.64466 6.51964 7.75001 6.26529 7.75001 6.00007C7.75001 5.73485 7.64466 5.4805 7.45712 5.29296C7.26958 5.10543 7.01523 5.00007 6.75001 5.00007ZM11.75 19.0001V17.0001H13.75V19.0001H11.75ZM7.75001 13.0001H5.75001V11.0001H7.75001V13.0001Z" fill="#2BC1BB"/>
</svg>
