<svg width="17" height="20" viewBox="0 0 17 20" fill="none" xmlns="http://www.w3.org/2000/svg">
<path fill-rule="evenodd" clip-rule="evenodd" d="M8.1389 10.6188H8.17089C11.0989 10.6188 13.4799 8.23776 13.4799 5.30976C13.4799 2.38176 11.0989 -0.000244141 8.17089 -0.000244141C5.24189 -0.000244141 2.85989 2.38176 2.85989 5.30676C2.84989 8.22676 5.2169 10.6098 8.1389 10.6188ZM4.28789 5.30976C4.28789 3.16876 6.02989 1.42776 8.17089 1.42776C10.3109 1.42776 12.0519 3.16876 12.0519 5.30976C12.0519 7.44976 10.3109 9.19176 8.17089 9.19176H8.14189C6.00989 9.18376 4.28089 7.44376 4.28789 5.30976Z" fill="#636366"/>
<path fill-rule="evenodd" clip-rule="evenodd" d="M0.249878 16.1731C0.249878 19.8701 6.21188 19.8701 8.17088 19.8701C11.5699 19.8701 16.0899 19.4891 16.0899 16.1931C16.0899 12.4961 10.1299 12.4961 8.17088 12.4961C4.77088 12.4961 0.249878 12.8771 0.249878 16.1731ZM1.74988 16.1731C1.74988 14.7281 3.90988 13.9961 8.17088 13.9961C12.4309 13.9961 14.5899 14.7351 14.5899 16.1931C14.5899 17.6381 12.4309 18.3701 8.17088 18.3701C3.90988 18.3701 1.74988 17.6311 1.74988 16.1731Z" fill="#636366"/>
</svg>
