<svg width="25" height="24" viewBox="0 0 25 24" fill="none" xmlns="http://www.w3.org/2000/svg">
<path d="M12.4673 2.25C10.5389 2.25 8.65386 2.82183 7.05048 3.89317C5.4471 4.96452 4.19742 6.48726 3.45946 8.26884C2.72151 10.0504 2.52843 12.0108 2.90463 13.9021C3.28084 15.7934 4.20944 17.5307 5.573 18.8943C6.93656 20.2579 8.67384 21.1865 10.5652 21.5627C12.4565 21.9389 14.4169 21.7458 16.1985 21.0078C17.98 20.2699 19.5028 19.0202 20.5741 17.4168C21.6455 15.8134 22.2173 13.9284 22.2173 12C22.2146 9.41498 21.1865 6.93661 19.3586 5.10872C17.5307 3.28084 15.0523 2.25273 12.4673 2.25ZM12.4673 20.25C10.8356 20.25 9.24054 19.7661 7.88383 18.8596C6.52713 17.9531 5.46971 16.6646 4.84528 15.1571C4.22086 13.6496 4.05748 11.9908 4.37581 10.3905C4.69414 8.79016 5.47988 7.32015 6.63366 6.16637C7.78744 5.01259 9.25745 4.22685 10.8578 3.90852C12.4581 3.59019 14.1169 3.75357 15.6244 4.37799C17.1319 5.00242 18.4204 6.05984 19.3269 7.41655C20.2334 8.77325 20.7173 10.3683 20.7173 12C20.7148 14.1873 19.8448 16.2843 18.2982 17.8309C16.7515 19.3775 14.6546 20.2475 12.4673 20.25Z" fill="#2BC1BB"/>
</svg>
