<svg width="81" height="80" viewBox="0 0 81 80" fill="none" xmlns="http://www.w3.org/2000/svg">
<path d="M60.4992 29.6163C65.777 6.86953 54.5048 0 40.2331 0C25.9614 0 14.6892 6.86953 19.967 29.6163H60.4992Z" fill="#315771"/>
<path d="M23.8685 36.3084L24.7658 34.7791L26.5138 32.0491L24.7254 27.4542C24.5496 27.4363 24.3713 27.4267 24.1907 27.4267C21.8488 27.4267 19.8716 28.9841 19.2354 31.1192C19.5988 34.4437 21.5264 36.3084 23.8685 36.3084Z" fill="#E2AE84"/>
<path d="M24.1905 34.8116C21.8486 34.8116 19.8714 33.2542 19.2352 31.1191C19.0955 31.5877 19.0195 32.0836 19.0195 32.5975C19.0195 35.4533 21.3345 37.7684 24.1905 37.7684C24.5517 37.7684 24.9044 37.7311 25.2447 37.6606L26.0834 35.9842L24.7656 34.7789C24.5766 34.7998 24.3848 34.8116 24.1905 34.8116Z" fill="#D7A379"/>
<path d="M65.0091 77.0431V66.8056C65.0091 60.3092 61.767 54.5702 56.8127 51.118H23.6534C18.6991 54.5702 15.457 60.3092 15.457 66.8056V77.0431L40.2331 78.4494L65.0091 77.0431Z" fill="#EDF3FC"/>
<path d="M16.2784 80H64.1878C64.6414 80 65.0092 79.6323 65.0092 79.1786V77.0431H15.457V79.1786C15.457 79.6323 15.8248 80 16.2784 80Z" fill="#E0EBF9"/>
<path d="M56.812 77.0431V51.1191C55.137 49.952 53.2666 49.0459 51.2596 48.4605H29.2066C27.1996 49.0459 25.3291 49.952 23.6543 51.1191V77.0431L40.2332 78.4494L56.812 77.0431Z" fill="#315771"/>
<path d="M45.1657 47.6986H35.2998L36.144 50.6287L40.2328 54.1217L44.3159 50.6362L45.1657 47.6986Z" fill="#E2AE84"/>
<path d="M40.2327 54.1217L35.7786 56.2302L34.4414 58.128C36.6864 61.0369 38.8056 62.7903 39.7367 63.493C40.0308 63.7148 40.4345 63.7148 40.7286 63.493C41.6597 62.7903 43.7789 61.0369 46.0239 58.128L44.6759 56.2227L40.2327 54.1217Z" fill="#CC4C61"/>
<path d="M33.803 58.5695L40.2327 54.1217L35.2997 47.6986H34.5636C32.7034 47.6986 30.9069 47.9675 29.207 48.4634C29.2081 52.3869 30.9852 55.6398 32.6367 58.3262C32.8833 58.727 33.4159 58.8373 33.803 58.5695Z" fill="#EDF3FC"/>
<path d="M46.6631 58.5695L40.2334 54.1217L45.1664 47.6986H45.9025C47.7626 47.6986 49.5592 47.9675 51.259 48.4634C51.2579 52.3869 49.4809 55.6398 47.8293 58.3262C47.5828 58.727 47.0501 58.8373 46.6631 58.5695Z" fill="#EDF3FC"/>
<path d="M56.5975 36.3084L55.7001 34.7791L53.9521 32.0491L55.7406 27.4542C55.9164 27.4363 56.0947 27.4267 56.2753 27.4267C58.6172 27.4267 60.5943 28.9841 61.2306 31.1192C60.8671 34.4437 58.9395 36.3084 56.5975 36.3084Z" fill="#E2AE84"/>
<path d="M56.2758 34.8116C58.6177 34.8116 60.5948 33.2542 61.2311 31.1191C61.3706 31.5877 61.4467 32.0836 61.4467 32.5975C61.4467 35.4533 59.1317 37.7684 56.2758 37.7684C55.9145 37.7684 55.5619 37.7311 55.2216 37.6606L54.3828 35.9842L55.7006 34.7789C55.8895 34.7998 56.0812 34.8116 56.2758 34.8116Z" fill="#D7A379"/>
<path d="M40.2334 47.6264C51.259 47.6264 55.7412 39.2772 55.7412 30.7125V27.4541C55.7412 27.4541 52.8332 23.4369 51.9196 17.5961C51.8448 17.1173 51.3821 16.8019 50.9115 16.918C48.964 17.3987 44.1662 18.4698 40.2334 18.4252C36.3006 18.4698 31.5028 17.3987 29.5553 16.918C29.0848 16.8019 28.622 17.1173 28.5471 17.5961C27.6336 23.4369 24.7256 27.4541 24.7256 27.4541V30.7125C24.7257 39.2772 29.7142 47.6264 40.2334 47.6264Z" fill="#F0C69E"/>
<path d="M23.6543 77.0431H56.812V80H23.6543V77.0431Z" fill="#2A4A5F"/>
<path d="M40.2334 46.2202C31.6687 46.2202 24.7256 39.2772 24.7256 30.7125V33.6694C24.7256 42.2341 31.6686 49.177 40.2332 49.177C48.7979 49.177 55.7409 42.2341 55.7409 33.6694V30.7125C55.7412 39.2772 48.7981 46.2202 40.2334 46.2202Z" fill="#E6BA94"/>
<path d="M50.4134 66.5616H45.5332C44.8513 66.5616 44.2988 67.1142 44.2988 67.7961C44.2988 68.478 44.8515 69.0305 45.5332 69.0305H50.4134C51.0952 69.0305 51.6479 68.4778 51.6479 67.7961C51.6477 67.1142 51.0952 66.5616 50.4134 66.5616Z" fill="#EDF3FC"/>
</svg>
